<svg id="Capa_1" enable-background="new 0 0 512.004 512.004" height="512" viewBox="0 0 512.004 512.004" width="512" xmlns="http://www.w3.org/2000/svg"><g><path d="m120.993 407.004c-10.566 0-17.869-10.709-13.922-20.575l16-40c3.076-7.692 11.805-11.436 19.498-8.356 7.691 3.077 11.433 11.806 8.355 19.498l-16 40c-2.345 5.865-7.978 9.433-13.931 9.433z" fill="#88beff"/><path d="m278.932 357.57c-15.795 39.494-13.067 32.676-16 40-2.336 5.84-7.933 9.43-13.93 9.43-10.579 0-17.867-10.707-13.93-20.57l16-40c2.999-7.499 11.611-11.507 19.5-8.36 7.69 3.08 11.43 11.81 8.36 19.5z" fill="#88beff"/><path d="m278.932 357.57c-15.795 39.494-13.067 32.676-16 40-1.38 3.45-3.89 6.1-6.93 7.7v-65.26c4.062-3.07 9.536-3.948 14.57-1.94 7.69 3.08 11.43 11.81 8.36 19.5z" fill="#6aa9ff"/><path d="m168.994 512.004c-10.508 0-17.815-10.605-13.97-20.457l16-41c3.012-7.717 11.707-11.533 19.427-8.521 7.718 3.012 11.532 11.709 8.521 19.427l-16 41c-2.313 5.926-7.979 9.551-13.978 9.551z" fill="#88beff"/><path d="m312.994 512.004c-10.508 0-17.815-10.605-13.97-20.457l16-41c3.012-7.717 11.708-11.533 19.427-8.521 7.718 3.012 11.532 11.709 8.521 19.427l-16 41c-2.313 5.926-7.979 9.551-13.978 9.551z" fill="#6aa9ff"/><path d="m376.993 407.004c-10.566 0-17.869-10.709-13.922-20.575l16-40c3.076-7.692 11.805-11.436 19.498-8.356 7.691 3.077 11.433 11.806 8.355 19.498l-16 40c-2.345 5.865-7.978 9.433-13.931 9.433z" fill="#6aa9ff"/><path d="m426.479 110.674c-15.066-29.891-37.864-56.61-64.916-75.91-64.926-46.321-146.121-46.374-211.121 0-27.034 19.287-49.82 45.985-64.912 75.909-47.65 5.864-85.528 46.387-85.528 95.78 0 53.234 43.758 96.542 97.543 96.542h316.914c53.785 0 97.543-43.309 97.543-96.542 0-49.367-37.854-89.91-85.523-95.779z" fill="#edf5ff"/><path d="m512.002 206.45c0 53.24-43.76 96.55-97.54 96.55h-158.46v-303c73.673 0 138.748 47.335 170.48 110.67 47.97 5.925 85.52 46.632 85.52 95.78z" fill="#d5e8fe"/></g></svg>